<?xml version="1.0" standalone="no"?>
<svg width="1076.609375" height="398" xmlns:xlink="http://www.w3.org/1999/xlink" xmlns="http://www.w3.org/2000/svg" id="netDrawArea" style="width: 99%; height: 99%;"><circle id="21" cx="1044" cy="245" r="20" fill="white" stroke="black" stroke-width="2" class="place"/><circle cx="1035" cy="236" r="4" fill="white"/><circle cx="1044" cy="236" r="4" fill="white"/><circle cx="1053" cy="236" r="4" fill="white"/><circle cx="1035" cy="245" r="4" fill="white"/><circle cx="1044" cy="245" r="4" fill="white"/><circle cx="1053" cy="245" r="4" fill="white"/><circle cx="1035" cy="254" r="4" fill="white"/><circle cx="1044" cy="254" r="4" fill="white"/><circle cx="1053" cy="254" r="4" fill="white"/><text x="1044" y="245" font-family="verdana" font-weight="bold" font-size="12"></text><polyline points="79.97044833773937,251.0868271204212  177.01477583113032,256.3681510656398" fill="none" stroke-width="4" stroke="white"/><polyline points="79.97044833773937,251.0868271204212  177.01477583113032,256.3681510656398" fill="none" stroke-width="2" stroke="black"/><polygon points="187,256.91156462585036 176.74306905102503,261.3607631500746 177.2864826112356,251.37553898120493" stroke="black" fill="black"/><rect x="132.48522416886968" y="252.99919587313576" opacity="0.6" stroke-width="1" fill="white" width="2" height="0"/><text font-family="verdana" font-weight="bold" font-size="12" x="133.48522416886968" y="249.99919587313576"></text><circle id="14" cx="60" cy="250" r="20" fill="white" stroke="black" stroke-width="2" class="place"/><circle cx="51" cy="241" r="4" fill="white"/><circle cx="60" cy="241" r="4" fill="white"/><circle cx="69" cy="241" r="4" fill="white"/><circle cx="51" cy="250" r="4" fill="white"/><circle cx="60" cy="250" r="4" fill="black"/><circle cx="69" cy="250" r="4" fill="white"/><circle cx="51" cy="259" r="4" fill="white"/><circle cx="60" cy="259" r="4" fill="white"/><circle cx="69" cy="259" r="4" fill="white"/><text x="60" y="250" font-family="verdana" font-weight="bold" font-size="12" fill="black"></text><polyline points="227,257.41747572815535  280.01271695415454,255.87341601104404" fill="none" stroke-width="4" stroke="white"/><polyline points="227,257.41747572815535  280.01271695415454,255.87341601104404" fill="none" stroke-width="2" stroke="black"/><polygon points="290.00847796943634,255.58227734069604 280.15828628932854,260.87129651868497 279.86714761898054,250.87553550340314" stroke="black" fill="black"/><rect x="257.5042389847182" y="255.4998765344257" opacity="0.6" stroke-width="1" fill="white" width="2" height="0"/><text font-family="verdana" font-weight="bold" font-size="12" x="258.5042389847182" y="252.4998765344257"></text><rect id="0" x="187" y="238" width="40" height="40" fill="#80ffaa" class="transition" stroke="black" stroke-width="2"/><polyline points="329.9867899589286,255.72679236214285  390.0066050205357,257.9093310916558" fill="none" stroke-width="4" stroke="white"/><polyline points="329.9867899589286,255.72679236214285  390.0066050205357,257.9093310916558" fill="none" stroke-width="2" stroke="black"/><polygon points="400,258.27272727272725 389.82490693,262.906028581388 390.1883031110714,252.91263360192366" stroke="black" fill="black"/><rect x="363.9933949794643" y="255.99975981743506" opacity="0.6" stroke-width="1" fill="white" width="2" height="0"/><text font-family="verdana" font-weight="bold" font-size="12" x="364.9933949794643" y="252.99975981743506"></text><circle id="15" cx="310" cy="255" r="20" fill="white" stroke="black" stroke-width="2" class="place"/><circle cx="301" cy="246" r="4" fill="white"/><circle cx="310" cy="246" r="4" fill="white"/><circle cx="319" cy="246" r="4" fill="white"/><circle cx="301" cy="255" r="4" fill="white"/><circle cx="310" cy="255" r="4" fill="white"/><circle cx="319" cy="255" r="4" fill="white"/><circle cx="301" cy="264" r="4" fill="white"/><circle cx="310" cy="264" r="4" fill="white"/><circle cx="319" cy="264" r="4" fill="white"/><text x="310" y="255" font-family="verdana" font-weight="bold" font-size="12"></text><polyline points="440,259.9756097560976  472.0356294662531,261.53832338859775" fill="none" stroke-width="4" stroke="white"/><polyline points="440,259.9756097560976  472.0356294662531,261.53832338859775" fill="none" stroke-width="2" stroke="black"/><polygon points="482.02375297750206,262.0255489257318 471.79201669768605,266.53238514422225 472.2792422348202,256.54426163297325" stroke="black" fill="black"/><rect x="455.746251488751" y="245.00057934091467" opacity="0.6" stroke-width="1" fill="white" width="10.53125" height="15"/><text font-family="verdana" font-weight="bold" font-size="12" x="456.746251488751" y="257.00057934091467">2</text><rect id="8" x="400" y="239" width="40" height="40" fill="#ffb3b3" class="transition" stroke="black" stroke-width="2"/><polyline points="514.043257654492,247.03253479516798  569.8936254100422,172.983732602416" fill="none" stroke-width="4" stroke="white"/><polyline points="514.043257654492,247.03253479516798  569.8936254100422,172.983732602416" fill="none" stroke-width="2" stroke="black"/><polygon points="575.9152542372882,165 573.8854917112502,175.994547016039 565.9017591088342,169.97291818879302" stroke="black" fill="black"/><rect x="543.9792559458901" y="205.016267397584" opacity="0.6" stroke-width="1" fill="white" width="2" height="0"/><text font-family="verdana" font-weight="bold" font-size="12" x="544.9792559458901" y="202.016267397584"></text><polyline points="515.9004419369495,277.3797675209822  562.7164456981919,325.8101162395089" fill="none" stroke-width="4" stroke="white"/><polyline points="515.9004419369495,277.3797675209822  562.7164456981919,325.8101162395089" fill="none" stroke-width="2" stroke="black"/><polygon points="569.6666666666666,333 559.1215038179464,329.28522672374623 566.3113875784375,322.33500575527154" stroke="black" fill="black"/><rect x="541.7835543018081" y="304.1898837604911" opacity="0.6" stroke-width="1" fill="white" width="2" height="0"/><text font-family="verdana" font-weight="bold" font-size="12" x="542.7835543018081" y="301.1898837604911"></text><circle id="16" cx="502" cy="263" r="20" fill="white" stroke="black" stroke-width="2" class="place"/><circle cx="493" cy="254" r="4" fill="white"/><circle cx="502" cy="254" r="4" fill="white"/><circle cx="511" cy="254" r="4" fill="white"/><circle cx="493" cy="263" r="4" fill="white"/><circle cx="502" cy="263" r="4" fill="white"/><circle cx="511" cy="263" r="4" fill="white"/><circle cx="493" cy="272" r="4" fill="white"/><circle cx="502" cy="272" r="4" fill="white"/><circle cx="511" cy="272" r="4" fill="white"/><text x="502" y="263" font-family="verdana" font-weight="bold" font-size="12"></text><polyline points="611,143.99159663865547  680.0380603480002,140.51068603287393" fill="none" stroke-width="4" stroke="white"/><polyline points="611,143.99159663865547  680.0380603480002,140.51068603287393" fill="none" stroke-width="2" stroke="black"/><polygon points="690.0253735653334,140.00712402191596 680.2898413534791,145.50434264154057 679.7862793425212,135.5170294242073" stroke="black" fill="black"/><rect x="649.5126867826667" y="140.9993603302857" opacity="0.6" stroke-width="1" fill="white" width="2" height="0"/><text font-family="verdana" font-weight="bold" font-size="12" x="650.5126867826667" y="137.9993603302857"></text><rect id="9" x="571" y="125" width="40" height="40" fill="#ffb3b3" class="transition" stroke="black" stroke-width="2"/><polyline points="609,353.33613445378154  678.0042360915207,354.49586951414324" fill="none" stroke-width="4" stroke="white"/><polyline points="609,353.33613445378154  678.0042360915207,354.49586951414324" fill="none" stroke-width="2" stroke="black"/><polygon points="688.0028240610138,354.6639130094288 677.9202143438779,359.4951634988898 678.0882578391636,349.4965755293967" stroke="black" fill="black"/><rect x="647.5014120305069" y="353.0000237316052" opacity="0.6" stroke-width="1" fill="white" width="2" height="0"/><text font-family="verdana" font-weight="bold" font-size="12" x="648.5014120305069" y="350.0000237316052"></text><rect id="10" x="569" y="333" width="40" height="40" fill="#ffb3b3" class="transition" stroke="black" stroke-width="2"/><polyline points="729.989602286794,139.64482588021914  773.005198856603,141.03242576956782" fill="none" stroke-width="4" stroke="white"/><polyline points="729.989602286794,139.64482588021914  773.005198856603,141.03242576956782" fill="none" stroke-width="2" stroke="black"/><polygon points="783,141.3548387096774 772.8439923865482,146.02982634126633 773.1664053266578,136.03502519786932" stroke="black" fill="black"/><rect x="755.494801143397" y="139.49983229494828" opacity="0.6" stroke-width="1" fill="white" width="2" height="0"/><text font-family="verdana" font-weight="bold" font-size="12" x="756.494801143397" y="136.49983229494828"></text><circle id="17" cx="710" cy="139" r="20" fill="white" stroke="black" stroke-width="2" class="place"/><circle cx="701" cy="130" r="4" fill="white"/><circle cx="710" cy="130" r="4" fill="white"/><circle cx="719" cy="130" r="4" fill="white"/><circle cx="701" cy="139" r="4" fill="white"/><circle cx="710" cy="139" r="4" fill="white"/><circle cx="719" cy="139" r="4" fill="white"/><circle cx="701" cy="148" r="4" fill="white"/><circle cx="710" cy="148" r="4" fill="white"/><circle cx="719" cy="148" r="4" fill="white"/><text x="710" y="139" font-family="verdana" font-weight="bold" font-size="12"></text><polyline points="727.9990755078924,355.1922988029605  782.0004622460539,355.71154290621206" fill="none" stroke-width="4" stroke="white"/><polyline points="727.9990755078924,355.1922988029605  782.0004622460539,355.71154290621206" fill="none" stroke-width="2" stroke="black"/><polygon points="792,355.8076923076923 781.9523875453137,360.7113117831851 782.048536946794,350.711774029239" stroke="black" fill="black"/><rect x="758.9995377539462" y="354.49999555532645" opacity="0.6" stroke-width="1" fill="white" width="2" height="0"/><text font-family="verdana" font-weight="bold" font-size="12" x="759.9995377539462" y="351.49999555532645"></text><circle id="18" cx="708" cy="355" r="20" fill="white" stroke="black" stroke-width="2" class="place"/><circle cx="699" cy="346" r="4" fill="white"/><circle cx="708" cy="346" r="4" fill="white"/><circle cx="717" cy="346" r="4" fill="white"/><circle cx="699" cy="355" r="4" fill="white"/><circle cx="708" cy="355" r="4" fill="white"/><circle cx="717" cy="355" r="4" fill="white"/><circle cx="699" cy="364" r="4" fill="white"/><circle cx="708" cy="364" r="4" fill="white"/><circle cx="717" cy="364" r="4" fill="white"/><text x="708" y="355" font-family="verdana" font-weight="bold" font-size="12"></text><polyline points="832,353.5824175824176  873.2168033904074,348.60016662313757" fill="none" stroke-width="4" stroke="white"/><polyline points="832,353.5824175824176  873.2168033904074,348.60016662313757" fill="none" stroke-width="2" stroke="black"/><polygon points="883.1445355936049,347.4001110820917 873.8168311609304,353.5640327247363 872.6167756198845,343.63630052153883" stroke="black" fill="black"/><rect x="856.5722677968024" y="349.4912643322547" opacity="0.6" stroke-width="1" fill="white" width="2" height="0"/><text font-family="verdana" font-weight="bold" font-size="12" x="857.5722677968024" y="346.4912643322547"></text><rect id="12" x="792" y="336" width="40" height="40" fill="#ffb3b3" class="transition" stroke="black" stroke-width="2"/><polyline points="823,142.1923076923077  877.0013867381615,142.71155179555925" fill="none" stroke-width="4" stroke="white"/><polyline points="823,142.1923076923077  877.0013867381615,142.71155179555925" fill="none" stroke-width="2" stroke="black"/><polygon points="887.0009244921076,142.8077011970395 876.9533120374214,147.71132067253234 877.0494614389016,137.71178291858615" stroke="black" fill="black"/><rect x="854.0004622460538" y="141.5000044446736" opacity="0.6" stroke-width="1" fill="white" width="2" height="0"/><text font-family="verdana" font-weight="bold" font-size="12" x="855.0004622460538" y="138.5000044446736"></text><rect id="11" x="783" y="122" width="40" height="40" fill="#ffb3b3" class="transition" stroke="black" stroke-width="2"/><polyline points="918.4016309641258,159.4317622718285  955.4216334975289,212.78411886408577" fill="none" stroke-width="4" stroke="white"/><polyline points="918.4016309641258,159.4317622718285  955.4216334975289,212.78411886408577" fill="none" stroke-width="2" stroke="black"/><polygon points="961.1224489795918,221 951.3136929295717,215.63452660511723 959.529574065486,209.9337111230543" stroke="black" fill="black"/><rect x="938.7620399718588" y="189.21588113591423" opacity="0.6" stroke-width="1" fill="white" width="2" height="0"/><text font-family="verdana" font-weight="bold" font-size="12" x="939.7620399718588" y="186.21588113591423"></text><circle id="19" cx="907" cy="143" r="20" fill="white" stroke="black" stroke-width="2" class="place"/><circle cx="898" cy="134" r="4" fill="white"/><circle cx="907" cy="134" r="4" fill="white"/><circle cx="916" cy="134" r="4" fill="white"/><circle cx="898" cy="143" r="4" fill="white"/><circle cx="907" cy="143" r="4" fill="white"/><circle cx="916" cy="143" r="4" fill="white"/><circle cx="898" cy="152" r="4" fill="white"/><circle cx="907" cy="152" r="4" fill="white"/><circle cx="916" cy="152" r="4" fill="white"/><text x="907" y="143" font-family="verdana" font-weight="bold" font-size="12"></text><polyline points="914.3841995766062,328.5561561671244  955.4617463655431,269.2219219164378" fill="none" stroke-width="4" stroke="white"/><polyline points="914.3841995766062,328.5561561671244  955.4617463655431,269.2219219164378" fill="none" stroke-width="2" stroke="black"/><polygon points="961.1538461538462,261 959.5727073237621,272.0679718105893 951.3507854073242,266.3758720222863" stroke="black" fill="black"/><rect x="936.7690228652261" y="293.7780780835622" opacity="0.6" stroke-width="1" fill="white" width="2" height="0"/><text font-family="verdana" font-weight="bold" font-size="12" x="937.7690228652261" y="290.7780780835622"></text><circle id="20" cx="903" cy="345" r="20" fill="white" stroke="black" stroke-width="2" class="place"/><circle cx="894" cy="336" r="4" fill="white"/><circle cx="903" cy="336" r="4" fill="white"/><circle cx="912" cy="336" r="4" fill="white"/><circle cx="894" cy="345" r="4" fill="white"/><circle cx="903" cy="345" r="4" fill="white"/><circle cx="912" cy="345" r="4" fill="white"/><circle cx="894" cy="354" r="4" fill="white"/><circle cx="903" cy="354" r="4" fill="white"/><circle cx="912" cy="354" r="4" fill="white"/><text x="903" y="345" font-family="verdana" font-weight="bold" font-size="12"></text><polyline points="995,242.15942028985506  1014.0502828763249,243.26378451456955" fill="none" stroke-width="4" stroke="white"/><polyline points="995,242.15942028985506  1014.0502828763249,243.26378451456955" fill="none" stroke-width="2" stroke="black"/><polygon points="1024.03352191755,243.84252300971303 1013.7609136287532,248.25540403518204 1014.3396521238966,238.27216499395706" stroke="black" fill="black"/><rect x="1008.516760958775" y="242.00097164978405" opacity="0.6" stroke-width="1" fill="white" width="2" height="0"/><text font-family="verdana" font-weight="bold" font-size="12" x="1009.516760958775" y="239.00097164978405"></text><rect id="13" x="955" y="221" width="40" height="40" fill="#ffb3b3" class="transition" stroke="black" stroke-width="2"/><rect x="197.5390625" y="279" stroke-width="1" fill-opacity="0.6" fill="white" width="18.921875" height="12"/><text id="label_0" y="290" x="198.5390625" font-family="verdana" font-weight="bold" font-size="12">p1</text><rect x="410.5390625" y="280" stroke-width="1" fill-opacity="0.6" fill="white" width="18.921875" height="12"/><text id="label_8" y="291" x="411.5390625" font-family="verdana" font-weight="bold" font-size="12">p2</text><rect x="581.5390625" y="166" stroke-width="1" fill-opacity="0.6" fill="white" width="18.921875" height="12"/><text id="label_9" y="177" x="582.5390625" font-family="verdana" font-weight="bold" font-size="12">p3</text><rect x="579.5390625" y="374" stroke-width="1" fill-opacity="0.6" fill="white" width="18.921875" height="12"/><text id="label_10" y="385" x="580.5390625" font-family="verdana" font-weight="bold" font-size="12">p4</text><rect x="793.5390625" y="163" stroke-width="1" fill-opacity="0.6" fill="white" width="18.921875" height="12"/><text id="label_11" y="174" x="794.5390625" font-family="verdana" font-weight="bold" font-size="12">p5</text><rect x="802.5390625" y="377" stroke-width="1" fill-opacity="0.6" fill="white" width="18.921875" height="12"/><text id="label_12" y="388" x="803.5390625" font-family="verdana" font-weight="bold" font-size="12">p6</text><rect x="965.5390625" y="262" stroke-width="1" fill-opacity="0.6" fill="white" width="18.921875" height="12"/><text id="label_13" y="273" x="966.5390625" font-family="verdana" font-weight="bold" font-size="12">p7</text><rect x="48.390625" y="271" stroke-width="1" fill-opacity="0.6" fill="white" width="23.21875" height="12"/><text y="282" x="49.390625" font-family="verdana" font-weight="bold" font-size="12">m1</text><rect x="298.390625" y="276" stroke-width="1" fill-opacity="0.6" fill="white" width="23.21875" height="12"/><text y="287" x="299.390625" font-family="verdana" font-weight="bold" font-size="12">m2</text><rect x="490.390625" y="284" stroke-width="1" fill-opacity="0.6" fill="white" width="23.21875" height="12"/><text y="295" x="491.390625" font-family="verdana" font-weight="bold" font-size="12">m3</text><rect x="698.390625" y="160" stroke-width="1" fill-opacity="0.6" fill="white" width="23.21875" height="12"/><text y="171" x="699.390625" font-family="verdana" font-weight="bold" font-size="12">m4</text><rect x="696.390625" y="376" stroke-width="1" fill-opacity="0.6" fill="white" width="23.21875" height="12"/><text y="387" x="697.390625" font-family="verdana" font-weight="bold" font-size="12">m5</text><rect x="895.390625" y="164" stroke-width="1" fill-opacity="0.6" fill="white" width="23.21875" height="12"/><text y="175" x="896.390625" font-family="verdana" font-weight="bold" font-size="12">m6</text><rect x="891.390625" y="366" stroke-width="1" fill-opacity="0.6" fill="white" width="23.21875" height="12"/><text y="377" x="892.390625" font-family="verdana" font-weight="bold" font-size="12">m7</text><rect x="1032.390625" y="266" stroke-width="1" fill-opacity="0.6" fill="white" width="23.21875" height="12"/><text y="277" x="1033.390625" font-family="verdana" font-weight="bold" font-size="12">m8</text></svg>