<?xml version="1.0" encoding="UTF-8" standalone="no"?>
<svg
   xmlns:dc="http://purl.org/dc/elements/1.1/"
   xmlns:cc="http://creativecommons.org/ns#"
   xmlns:rdf="http://www.w3.org/1999/02/22-rdf-syntax-ns#"
   xmlns:svg="http://www.w3.org/2000/svg"
   xmlns="http://www.w3.org/2000/svg"
   viewBox="0 0 1000 1000"
   version="1.1"
   id="svg4684"
   height="1000"
   width="1000">
  <defs
     id="defs5498" />
  <metadata
     id="metadata5594">
    <rdf:RDF>
      <cc:Work
         rdf:about="">
        <dc:format>image/svg+xml</dc:format>
        <dc:type
           rdf:resource="http://purl.org/dc/dcmitype/StillImage" />
        <dc:title></dc:title>
      </cc:Work>
    </rdf:RDF>
  </metadata>
  <g
     id="layer1">
    <g
       transform="matrix(1.8014299,0,0,1.3787004,429.84618,574.99868)"
       id="g5272">
      <g
         style="fill:#000000;fill-opacity:1"
         id="g5232">
        <path
           style="fill:#000000;fill-opacity:1"
           d="m 294.088,99.52 c -1.865,-1.865 -4.395,-2.913 -7.032,-2.913 L 9.955,96.62 c -5.491,0 -9.942,4.451 -9.943,9.943 L 0,190.448 c 0,2.638 1.047,5.168 2.912,7.032 1.865,1.865 4.394,2.913 7.033,2.913 l 277.1,-0.016 c 5.491,0 9.942,-4.451 9.943,-9.943 L 297,106.552 c 0,-2.638 -1.047,-5.168 -2.912,-7.032 z"
           id="path5234" />
      </g>
      <g
         id="g5236" />
      <g
         id="g5238" />
      <g
         id="g5240" />
      <g
         id="g5242" />
      <g
         id="g5244" />
      <g
         id="g5246" />
      <g
         id="g5248" />
      <g
         id="g5250" />
      <g
         id="g5252" />
      <g
         id="g5254" />
      <g
         id="g5256" />
      <g
         id="g5258" />
      <g
         id="g5260" />
      <g
         id="g5262" />
      <g
         id="g5264" />
    </g>
    <g
       transform="translate(15.271328,15.271824)"
       id="g5292">
      <path
         id="path5294"
         d="m 516.667,200 -183.334,0 0,-183.333 C 333.333,7.462 325.871,0 316.667,0 l -100,0 C 207.462,0 200,7.462 200,16.667 L 200,200 16.667,200 C 7.462,200 0,207.462 0,216.667 l 0,100 c 0,9.204 7.462,16.666 16.667,16.666 l 183.333,0 0,183.334 c 0,9.204 7.462,16.666 16.667,16.666 l 100,0 c 9.204,0 16.667,-7.462 16.667,-16.666 l 0,-183.334 183.333,0 c 9.204,0 16.667,-7.462 16.667,-16.666 l 0,-100 C 533.333,207.462 525.871,200 516.667,200 Z" />
    </g>
    <g
       transform="translate(15.271328,15.271824)"
       id="g5296" />
    <g
       transform="translate(15.271328,15.271824)"
       id="g5298" />
    <g
       transform="translate(15.271328,15.271824)"
       id="g5300" />
    <g
       transform="translate(15.271328,15.271824)"
       id="g5302" />
    <g
       transform="translate(15.271328,15.271824)"
       id="g5304" />
    <g
       transform="translate(15.271328,15.271824)"
       id="g5306" />
    <g
       transform="translate(15.271328,15.271824)"
       id="g5308" />
    <g
       transform="translate(15.271328,15.271824)"
       id="g5310" />
    <g
       transform="translate(15.271328,15.271824)"
       id="g5312" />
    <g
       transform="translate(15.271328,15.271824)"
       id="g5314" />
    <g
       transform="translate(15.271328,15.271824)"
       id="g5316" />
    <g
       transform="translate(15.271328,15.271824)"
       id="g5318" />
    <g
       transform="translate(15.271328,15.271824)"
       id="g5320" />
    <g
       transform="translate(15.271328,15.271824)"
       id="g5322" />
    <g
       transform="translate(15.271328,15.271824)"
       id="g5324" />
    <path
       id="rect5363"
       d="m -568.1731,695.99304 1154.18494,0 0,35.24228 -1154.18494,0 z"
       style="opacity:1;fill:#000000;fill-opacity:1;stroke:#000000;stroke-width:2;stroke-linecap:round;stroke-linejoin:round;stroke-miterlimit:4;stroke-dasharray:none;stroke-opacity:1"
       transform="matrix(0.69422186,-0.71976108,0.71976108,0.69422186,0,0)" />
  </g>
</svg>
