<?xml version="1.0" encoding="UTF-8" standalone="no"?>
<svg
   xmlns:dc="http://purl.org/dc/elements/1.1/"
   xmlns:cc="http://creativecommons.org/ns#"
   xmlns:rdf="http://www.w3.org/1999/02/22-rdf-syntax-ns#"
   xmlns:svg="http://www.w3.org/2000/svg"
   xmlns="http://www.w3.org/2000/svg"
   xmlns:sodipodi="http://sodipodi.sourceforge.net/DTD/sodipodi-0.dtd"
   xmlns:inkscape="http://www.inkscape.org/namespaces/inkscape"
   width="512"
   height="512"
   style="vector-effect: non-scaling-stroke;"
   id="svg3362"
   version="1.1"
   inkscape:version="0.91 r13725"
   sodipodi:docname="role-list.svg">
  <metadata
     id="metadata3381">
    <rdf:RDF>
      <cc:Work
         rdf:about="">
        <dc:format>image/svg+xml</dc:format>
        <dc:type
           rdf:resource="http://purl.org/dc/dcmitype/StillImage" />
        <dc:title></dc:title>
      </cc:Work>
    </rdf:RDF>
  </metadata>
  <defs
     id="defs3379" />
  <sodipodi:namedview
     pagecolor="#ffffff"
     bordercolor="#666666"
     borderopacity="1"
     objecttolerance="10"
     gridtolerance="10"
     guidetolerance="10"
     inkscape:pageopacity="0"
     inkscape:pageshadow="2"
     inkscape:window-width="1858"
     inkscape:window-height="1058"
     id="namedview3377"
     showgrid="false"
     inkscape:zoom="0.4609375"
     inkscape:cx="53.152542"
     inkscape:cy="256"
     inkscape:window-x="54"
     inkscape:window-y="-8"
     inkscape:window-maximized="1"
     inkscape:current-layer="svg3362" />
  <g
     
     id="g3364">
    <title
       
       id="title3366">Layer 1</title>
    <g
       
       id="svg_15">
      <path
         
         id="svg_14"
         d="m228.55557,114.608552c0,19.377324 -51.292917,34.195278 -113.98426,34.195278s-113.98426,-14.817954 -113.98426,-34.195278c0,-9.118741 13.678111,-18.237482 34.195278,-23.936695c0,0 0,1.139843 0,1.139843l0,0c0,0 0,0 0,0c0,6.839056 20.517167,22.796852 79.788982,22.796852s79.788982,-15.957796 79.788982,-22.796852c0,0 0,-1.139843 0,-1.139843c20.517167,5.699213 34.195278,14.817954 34.195278,23.936695zm-36.474963,-36.474963c0,-31.915593 -26.21638,-77.509297 -43.314019,-77.509297c-13.678111,0 -19.377324,11.398426 -34.195278,11.398426s-20.517167,-11.398426 -34.195278,-11.398426c-17.097639,0 -43.314019,45.593704 -43.314019,77.509297c6.839056,7.978898 29.635908,18.237482 77.509297,18.237482c47.873389,1.139843 70.670241,-10.258583 77.509297,-18.237482z" />
    </g>
    <g
       
       id="svg_21">
      <path
         
         id="svg_20"
         d="m228.55557,295.33699c0,19.377324 -51.292917,34.195278 -113.98426,34.195278s-113.98426,-14.817954 -113.98426,-34.195278c0,-9.118741 13.678111,-18.237482 34.195278,-23.936695c0,0 0,1.139843 0,1.139843l0,0c0,0 0,0 0,0c0,6.839055 20.517167,22.796852 79.788982,22.796852s79.788982,-15.957797 79.788982,-22.796852c0,0 0,-1.139843 0,-1.139843c20.517167,5.699213 34.195278,14.817954 34.195278,23.936695zm-36.474963,-36.474964c0,-31.915592 -26.21638,-77.509296 -43.314019,-77.509296c-13.678111,0 -19.377324,11.398426 -34.195278,11.398426s-20.517166,-11.398426 -34.195278,-11.398426c-17.097639,0 -43.314018,45.593704 -43.314018,77.509296c6.839055,7.978899 29.635907,18.237482 77.509296,18.237482c47.87339,1.139843 70.670242,-10.258583 77.509297,-18.237482z" />
    </g>
    <g
       
       id="svg_23">
      <path
         
         id="svg_22"
         d="m228.55557,477.466874c0,19.377324 -51.292917,34.195278 -113.98426,34.195278s-113.98426,-14.817954 -113.98426,-34.195278c0,-9.118741 13.678111,-18.237482 34.195278,-23.936695c0,0 0,1.139843 0,1.139843l0,0c0,0 0,0 0,0c0,6.839055 20.517167,22.796852 79.788982,22.796852s79.788982,-15.957797 79.788982,-22.796852c0,0 0,-1.139843 0,-1.139843c20.517167,5.699213 34.195278,14.817954 34.195278,23.936695zm-36.474963,-36.474964c0,-31.915592 -26.21638,-77.509296 -43.314019,-77.509296c-13.678111,0 -19.377324,11.398426 -34.195278,11.398426s-20.517166,-11.398426 -34.195278,-11.398426c-17.097639,0 -43.314018,45.593704 -43.314018,77.509296c6.839055,7.978899 29.635907,18.237482 77.509296,18.237482c47.87339,1.139843 70.670242,-10.258583 77.509297,-18.237482z" />
    </g>
    <rect
       id="svg_34"
       height="52.857211"
       width="280.714649"
       y="46.356861"
       x="245.642844" />
    <rect
       id="svg_35"
       height="52.857211"
       width="280.714649"
       y="228.512561"
       x="245.642844" />
    <rect
       id="svg_36"
       height="52.857211"
       width="280.714649"
       y="412.80405"
       x="245.642844" />
  </g>
</svg>
