<?xml version="1.0" encoding="UTF-8" standalone="no"?>
<svg
   xmlns:dc="http://purl.org/dc/elements/1.1/"
   xmlns:cc="http://creativecommons.org/ns#"
   xmlns:rdf="http://www.w3.org/1999/02/22-rdf-syntax-ns#"
   xmlns:svg="http://www.w3.org/2000/svg"
   xmlns="http://www.w3.org/2000/svg"
   xmlns:sodipodi="http://sodipodi.sourceforge.net/DTD/sodipodi-0.dtd"
   xmlns:inkscape="http://www.inkscape.org/namespaces/inkscape"
   width="512"
   height="512"
   id="svg3413"
   version="1.1"
   inkscape:version="0.91 r13725"
   sodipodi:docname="role-remove.svg">
  <metadata
     id="metadata3428">
    <rdf:RDF>
      <cc:Work
         rdf:about="">
        <dc:format>image/svg+xml</dc:format>
        <dc:type
           rdf:resource="http://purl.org/dc/dcmitype/StillImage" />
        <dc:title></dc:title>
      </cc:Work>
    </rdf:RDF>
  </metadata>
  <defs
     id="defs3426" />
  <sodipodi:namedview
     pagecolor="#ffffff"
     bordercolor="#666666"
     borderopacity="1"
     objecttolerance="10"
     gridtolerance="10"
     guidetolerance="10"
     inkscape:pageopacity="0"
     inkscape:pageshadow="2"
     inkscape:window-width="1858"
     inkscape:window-height="1058"
     id="namedview3424"
     showgrid="false"
     inkscape:zoom="0.4609375"
     inkscape:cx="53.152542"
     inkscape:cy="256"
     inkscape:window-x="54"
     inkscape:window-y="-8"
     inkscape:window-maximized="1"
     inkscape:current-layer="svg3413" />
  <g id="g3415">
    <title
       id="title3417">Layer 1</title>
    <path
       
       id="svg_2"
       d="m154,159.65583zm9.609463,216.666443c-124.583205,0 -162.499832,89.374908 -162.499832,89.374908l0,46.041619l324.999664,0l0,-46.041619c0,0 -37.916627,-89.374908 -162.499832,-89.374908z" />
    <g id="svg_17">
      <path
         
         id="svg_16"
         d="m510.66727,136.828684c0,23.112521 -51.599719,40.786802 -114.666042,40.786802s-114.666042,-17.674281 -114.666042,-40.786802c0,-10.876481 13.759925,-21.752961 34.399813,-28.550762c0,0 0,1.35956 0,1.35956l0,0c0,0 0,0 0,0c0,8.15736 20.639888,27.191201 80.26623,27.191201s80.26623,-19.033841 80.26623,-27.191201c0,0 0,-1.35956 0,-1.35956c20.639888,6.7978 34.399813,17.674281 34.399813,28.550762zm-36.693134,-43.505922c0,-38.067682 -26.37319,-92.450085 -43.573096,-92.450085c-13.759925,0 -19.493227,13.595601 -34.399813,13.595601s-20.639888,-13.595601 -34.399813,-13.595601c-17.199906,0 -43.573096,54.382403 -43.573096,92.450085c6.879963,9.516921 29.813171,21.752961 77.972909,21.752961c48.159738,1.35956 71.092946,-12.236041 77.972909,-21.752961z" />
    </g>
    <ellipse
       ry="88.500818"
       rx="88.500818"
       id="svg_19"
       cy="265.000083"
       cx="164.999144" />
    <path
       id="svg_22"
       d="m300.092906,219.804152l153.001416,0l0,48.967148l-153.001416,0l0,-48.967148z" />
  </g>
</svg>
