<?xml version="1.0" encoding="UTF-8" standalone="no"?>
<!-- Generator: Adobe Illustrator 15.0.0, SVG Export Plug-In . SVG Version: 6.00 Build 0)  -->

<svg
   xmlns:dc="http://purl.org/dc/elements/1.1/"
   xmlns:cc="http://creativecommons.org/ns#"
   xmlns:rdf="http://www.w3.org/1999/02/22-rdf-syntax-ns#"
   xmlns:svg="http://www.w3.org/2000/svg"
   xmlns="http://www.w3.org/2000/svg"
   xmlns:sodipodi="http://sodipodi.sourceforge.net/DTD/sodipodi-0.dtd"
   xmlns:inkscape="http://www.inkscape.org/namespaces/inkscape"
   version="1.1"
   id="Layer_1"
   x="0px"
   y="0px"
   width="512px"
   height="512px"
   viewBox="0 0 512 512"
   enable-background="new 0 0 512 512"
   xml:space="preserve"
   inkscape:version="0.91 r13725"
   sodipodi:docname="role-info.svg"><metadata
     id="metadata3360"><rdf:RDF><cc:Work
         rdf:about=""><dc:format>image/svg+xml</dc:format><dc:type
           rdf:resource="http://purl.org/dc/dcmitype/StillImage" /><dc:title></dc:title></cc:Work></rdf:RDF></metadata><defs
     id="defs3358" /><sodipodi:namedview
     pagecolor="#ffffff"
     bordercolor="#666666"
     borderopacity="1"
     objecttolerance="10"
     gridtolerance="10"
     guidetolerance="10"
     inkscape:pageopacity="0"
     inkscape:pageshadow="2"
     inkscape:window-width="1858"
     inkscape:window-height="1058"
     id="namedview3356"
     showgrid="false"
     inkscape:zoom="0.4609375"
     inkscape:cx="53.152542"
     inkscape:cy="256"
     inkscape:window-x="54"
     inkscape:window-y="-8"
     inkscape:window-maximized="1"
     inkscape:current-layer="Layer_1" /><path
     d="M256.004,0C114.615,0,0,114.603,0,256.007C0,397.385,114.615,512,256.004,512C397.375,512,512,397.387,512,256.007  C512,114.603,397.375,0,256.004,0z M215.969,87.841c10.139-9.348,22.229-14.033,36.264-14.033c14.037,0,26.078,4.686,36.13,14.033  c10.059,9.356,15.068,20.629,15.068,33.792c0,13.179-5.057,24.399-15.193,33.679c-10.139,9.267-22.141,13.901-36.005,13.901  c-14.034,0-26.126-4.635-36.264-13.901c-10.138-9.278-15.206-20.5-15.206-33.679C200.762,108.47,205.832,97.199,215.969,87.841z   M341.391,438.191H177.108v-31.51c4.506-0.305,8.926-0.693,13.256-1.145c4.338-0.469,8.058-1.223,11.177-2.293  c5.549-1.822,9.442-4.473,11.701-7.893c2.247-3.447,3.376-7.984,3.376-13.633V263.254c0-5.352-1.387-10.048-4.159-14.085  c-2.771-4.053-6.237-7.292-10.392-9.728c-3.123-1.841-7.849-3.588-14.176-5.261c-6.326-1.7-12.08-2.755-17.276-3.221v-16.708  l131.266-2.529v167.032c0,5.332,1.295,9.869,3.896,13.617c2.598,3.736,6.334,6.523,11.182,8.359  c3.465,1.367,7.275,2.592,11.43,3.658c4.162,1.07,8.5,1.836,13.002,2.293V438.191L341.391,438.191z"
     id="path3354" /></svg>